<svg width="145" height="131" viewBox="0 0 145 131" fill="none" xmlns="http://www.w3.org/2000/svg">
<g clip-path="url(#clip0)">
<path d="M61.625 73.6875H47.125C46.1636 73.6875 45.2416 73.2562 44.5617 72.4885C43.8819 71.7207 43.5 70.6795 43.5 69.5938V53.2188C43.5 52.133 43.8819 51.0918 44.5617 50.324C45.2416 49.5563 46.1636 49.125 47.125 49.125H61.625C62.5864 49.125 63.5084 49.5563 64.1883 50.324C64.8681 51.0918 65.25 52.133 65.25 53.2188V62.7162C67.7671 59.4208 71.3672 57.3125 75.4 57.3125H106.425L107.932 55.3859C108.423 54.695 108.709 53.8474 108.75 52.9629C108.699 51.9394 108.316 50.9731 107.674 50.2482L94.25 36.8438V12.2812C94.25 11.1955 93.8681 10.1543 93.1883 9.38653C92.5084 8.6188 91.5864 8.1875 90.625 8.1875H83.375C82.4136 8.1875 81.4916 8.6188 80.8117 9.38653C80.1319 10.1543 79.75 11.1955 79.75 12.2812V22.3365L59.6992 2.28227C58.4531 1.02344 56.0629 0 54.3863 0C52.7098 0 50.3241 1.02344 49.0689 2.28227L1.08297 50.2559C0.43734 50.9754 0.0513915 51.9402 0 52.9629C0.0391356 53.839 0.320416 54.6792 0.804297 55.3654L5.06141 60.8178C5.704 61.5501 6.56494 61.986 7.47656 62.0408C8.24631 61.9973 8.98536 61.6863 9.59266 61.1504L14.5 56.2584V98.25C14.5 100.421 15.2638 102.504 16.6235 104.039C17.9831 105.575 19.8272 106.438 21.75 106.438H61.625V73.6875ZM142.583 114.625H134.125V73.6875C134.125 69.1665 131.205 65.5 127.6 65.5H75.4C71.7954 65.5 68.875 69.1665 68.875 73.6875V114.625H60.4174C59.7763 114.625 59.1614 114.913 58.708 115.425C58.2547 115.937 58 116.631 58 117.355V120.082C58.0089 122.972 59.0281 125.74 60.8358 127.785C62.6434 129.83 65.0931 130.985 67.6516 131H135.348C137.907 130.985 140.357 129.83 142.164 127.785C143.972 125.74 144.991 122.972 145 120.082V117.355C145 116.631 144.745 115.937 144.292 115.425C143.839 114.913 143.224 114.625 142.583 114.625ZM123.25 114.625H79.75V77.7812H123.25V114.625Z" fill="#0007A5"/>
</g>
<defs>
<clipPath id="clip0">
<rect width="145" height="131" fill="white"/>
</clipPath>
</defs>
</svg>
