<svg width="100" height="89" viewBox="0 0 100 89" fill="none" xmlns="http://www.w3.org/2000/svg">
<g clip-path="url(#clip0)">
<path d="M86.1111 38.8889C87.7593 38.8889 89.3705 38.4001 90.7409 37.4845C92.1113 36.5688 93.1794 35.2673 93.8101 33.7446C94.4408 32.2219 94.6059 30.5463 94.2843 28.9298C93.9628 27.3133 93.1691 25.8284 92.0037 24.663C90.8382 23.4976 89.3534 22.7039 87.7369 22.3823C86.1204 22.0608 84.4448 22.2258 82.9221 22.8566C81.3994 23.4873 80.0979 24.5554 79.1822 25.9258C78.2665 27.2962 77.7778 28.9074 77.7778 30.5556C77.7778 32.7657 78.6558 34.8853 80.2186 36.4481C81.7814 38.0109 83.901 38.8889 86.1111 38.8889V38.8889ZM54.0747 30.9809C55.005 30.6983 55.9721 30.555 56.9445 30.5556C58.0708 30.5649 59.1869 30.7699 60.2431 31.1615L62.908 22.7222C63.0954 22.133 63.1492 21.5095 63.0657 20.8968C62.9822 20.2842 62.7634 19.6978 62.4252 19.1802C62.0869 18.6626 61.6377 18.2268 61.1102 17.9044C60.5826 17.5819 59.9899 17.3809 59.375 17.316C57.3733 17.0816 55.5191 18.434 54.9115 20.3559L51.283 31.8438L54.0747 30.9809ZM16.2587 67.0712C16.3976 67.0382 16.5261 66.9774 16.6667 66.9479V62.4878C16.6712 56.795 18.4695 51.2483 21.8062 46.6358C25.1428 42.0232 29.848 38.5794 35.2535 36.7934L48.0486 32.842L53.9792 14.0712C54.1656 13.4825 54.2189 12.8598 54.1351 12.248C54.0513 11.6363 53.8327 11.0508 53.4949 10.5339C53.1571 10.017 52.7087 9.58165 52.182 9.25932C51.6554 8.937 51.0636 8.73575 50.4497 8.67014C48.4479 8.4375 46.592 9.78993 45.9844 11.7118L40.1771 30.1875C40.0659 30.5388 39.8197 30.8316 39.4926 31.0014C39.1656 31.1712 38.7845 31.2041 38.4332 31.0929C38.0819 30.9817 37.7891 30.7355 37.6193 30.4084C37.4495 30.0814 37.4166 29.7003 37.5278 29.349L45.0573 5.42709C45.2437 4.83843 45.297 4.2157 45.2132 3.60394C45.1295 2.99218 44.9108 2.40668 44.573 1.88979C44.2352 1.37291 43.7868 0.937555 43.2601 0.615227C42.7335 0.292898 42.1418 0.0916519 41.5278 0.0260442C39.5261 -0.206595 37.6736 1.14584 37.0643 3.06597L28.7431 29.4045C28.6321 29.7558 28.3861 30.0487 28.0592 30.2186C27.7323 30.3886 27.3513 30.4217 27 30.3108C26.6487 30.1998 26.3558 29.9538 26.1859 29.6269C26.0159 29.3 25.9828 28.919 26.0938 28.5677L32.7882 7.38716C32.9746 6.7985 33.0279 6.17577 32.9441 5.56401C32.8604 4.95225 32.6417 4.36675 32.3039 3.84986C31.9661 3.33298 31.5177 2.89762 30.991 2.5753C30.4644 2.25297 29.8727 2.05172 29.2587 1.98611C27.257 1.73611 25.4028 3.09549 24.7952 5.01736L14.3785 37.9774L14.0208 29.2882C14.0243 28.7409 13.9198 28.1982 13.7135 27.6913C13.5072 27.1843 13.203 26.723 12.8183 26.3337C12.4336 25.9443 11.976 25.6346 11.4716 25.4221C10.9671 25.2097 10.4258 25.0987 9.87849 25.0955C7.58161 25.0868 5.58682 26.9253 5.55557 29.2378V48.809C5.61027 52.5182 6.62492 56.15 8.50065 59.3505C10.3764 62.551 13.0492 65.2109 16.2587 67.0712V67.0712ZM90.1215 58.3333H62.5C62.1317 58.3333 61.7784 58.187 61.5179 57.9265C61.2574 57.6661 61.1111 57.3128 61.1111 56.9444C61.1111 56.5761 61.2574 56.2228 61.5179 55.9623C61.7784 55.7019 62.1317 55.5556 62.5 55.5556H84.7222C85.3397 55.556 85.9496 55.4192 86.5078 55.155C87.0659 54.8908 87.5583 54.5058 87.9495 54.028C88.3406 53.5501 88.6206 52.9913 88.7693 52.392C88.9179 51.7926 88.9315 51.1677 88.809 50.5625C88.4288 48.5833 86.5816 47.2222 84.566 47.2222H50L58.1754 44.2604C58.6984 44.0988 59.1844 43.8357 59.6058 43.4862C60.0271 43.1367 60.3755 42.7077 60.631 42.2235C60.8865 41.7394 61.0442 41.2097 61.095 40.6647C61.1458 40.1196 61.0887 39.5699 60.9271 39.0469C60.7654 38.5239 60.5024 38.0378 60.1529 37.6165C59.8034 37.1951 59.3743 36.8468 58.8902 36.5912C58.4061 36.3357 57.8764 36.1781 57.3313 36.1273C56.7863 36.0764 56.2366 36.1335 55.7136 36.2951L37.0122 42.0677C32.7095 43.4823 28.9632 46.2191 26.3074 49.8881C23.6517 53.557 22.222 57.9707 22.2222 62.5V66.9531C24.2255 67.3566 26.1146 68.1983 27.7542 69.418C29.3938 70.6376 30.7432 72.2049 31.7056 74.0076C32.6681 75.8102 33.2198 77.8034 33.3211 79.8444C33.4224 81.8853 33.0709 83.9234 32.2917 85.8125C35.5278 87.8099 39.2527 88.8745 43.0556 88.8889H79.1667C79.7842 88.8893 80.3941 88.7525 80.9522 88.4883C81.5103 88.2241 82.0028 87.8392 82.3939 87.3613C82.785 86.8835 83.065 86.3247 83.2137 85.7253C83.3624 85.126 83.376 84.5011 83.2535 83.8958C82.8733 81.9167 81.0261 80.5556 79.0104 80.5556H62.5C62.1317 80.5556 61.7784 80.4092 61.5179 80.1488C61.2574 79.8883 61.1111 79.535 61.1111 79.1667C61.1111 78.7983 61.2574 78.445 61.5179 78.1846C61.7784 77.9241 62.1317 77.7778 62.5 77.7778H84.7222C85.3397 77.7782 85.9496 77.6414 86.5078 77.3772C87.0659 77.113 87.5583 76.7281 87.9495 76.2502C88.3406 75.7724 88.6206 75.2136 88.7693 74.6142C88.9179 74.0149 88.9315 73.39 88.809 72.7847C88.4288 70.8056 86.5816 69.4444 84.566 69.4444H62.5C62.1317 69.4444 61.7784 69.2981 61.5179 69.0376C61.2574 68.7772 61.1111 68.4239 61.1111 68.0556C61.1111 67.6872 61.2574 67.3339 61.5179 67.0735C61.7784 66.813 62.1317 66.6667 62.5 66.6667H90.2778C90.8953 66.6671 91.5052 66.5303 92.0633 66.2661C92.6215 66.0019 93.1139 65.617 93.505 65.1391C93.8961 64.6612 94.1762 64.1024 94.3248 63.5031C94.4735 62.9037 94.4871 62.2788 94.3646 61.6736C93.9844 59.6944 92.1372 58.3333 90.1215 58.3333ZM72.2222 11.1111C73.321 11.1111 74.3951 10.7853 75.3087 10.1748C76.2223 9.56438 76.9344 8.69672 77.3549 7.68158C77.7754 6.66643 77.8854 5.5494 77.671 4.47172C77.4567 3.39405 76.9276 2.40415 76.1506 1.62719C75.3736 0.850229 74.3837 0.321113 73.3061 0.106751C72.2284 -0.107611 71.1114 0.00240712 70.0962 0.422894C69.0811 0.843381 68.2134 1.55545 67.603 2.46906C66.9925 3.38266 66.6667 4.45677 66.6667 5.55556C66.6667 7.02898 67.252 8.44206 68.2939 9.48393C69.3357 10.5258 70.7488 11.1111 72.2222 11.1111ZM19.4445 72.2222C17.7963 72.2222 16.1851 72.711 14.8147 73.6266C13.4443 74.5423 12.3762 75.8438 11.7455 77.3665C11.1147 78.8892 10.9497 80.5648 11.2713 82.1813C11.5928 83.7978 12.3865 85.2827 13.5519 86.4481C14.7173 87.6135 16.2022 88.4072 17.8187 88.7288C19.4352 89.0503 21.1108 88.8853 22.6335 88.2545C24.1562 87.6238 25.4577 86.5557 26.3734 85.1853C27.289 83.8149 27.7778 82.2037 27.7778 80.5556C27.7778 78.3454 26.8998 76.2258 25.337 74.663C23.7742 73.1002 21.6546 72.2222 19.4445 72.2222Z" fill="#0007A5"/>
</g>
<defs>
<clipPath id="clip0">
<rect width="100" height="88.8889" fill="white"/>
</clipPath>
</defs>
</svg>
