<svg width="100" height="100" viewBox="0 0 100 100" fill="none" xmlns="http://www.w3.org/2000/svg">
<g clip-path="url(#clip0)">
<path d="M0.0293121 36.0195C-0.423813 47.6973 4.4922 58.2148 12.5 65.4063V100H43.75V61.8184L0.716812 30.5176C0.34496 32.3309 0.115097 34.1705 0.0293121 36.0195V36.0195ZM99.457 53.7109C95.3555 44.5078 89.9844 24.0723 85.1758 17.2363C81.4264 11.9145 76.4537 7.57116 70.6759 4.57166C64.8982 1.57216 58.4845 0.0043009 51.9746 0L39.0625 0C22.8516 0 8.29689 9.87695 2.58791 24.1504L46.7207 56.25H99.9531C99.9705 55.378 99.8014 54.5123 99.457 53.7109ZM62.5 43.75C61.2639 43.75 60.0555 43.3834 59.0277 42.6967C57.9999 42.0099 57.1988 41.0338 56.7258 39.8918C56.2527 38.7497 56.129 37.4931 56.3701 36.2807C56.6113 35.0683 57.2065 33.9547 58.0806 33.0806C58.9547 32.2065 60.0683 31.6112 61.2807 31.3701C62.4931 31.1289 63.7498 31.2527 64.8918 31.7258C66.0338 32.1988 67.0099 32.9999 67.6967 34.0277C68.3835 35.0555 68.75 36.2639 68.75 37.5C68.7464 39.1565 68.0868 40.7441 66.9154 41.9154C65.7441 43.0867 64.1565 43.7464 62.5 43.75V43.75ZM65.625 71.875H96.875L100 62.5H50V100H78.4922C81.1155 99.9998 83.6723 99.1742 85.8004 97.6403C87.9284 96.1064 89.52 93.9418 90.3496 91.4531L90.625 90.625H65.625C64.7962 90.625 64.0014 90.2958 63.4153 89.7097C62.8293 89.1237 62.5 88.3288 62.5 87.5C62.5 86.6712 62.8293 85.8763 63.4153 85.2903C64.0014 84.7042 64.7962 84.375 65.625 84.375H92.709L94.793 78.125H65.625C64.7962 78.125 64.0014 77.7958 63.4153 77.2097C62.8293 76.6237 62.5 75.8288 62.5 75C62.5 74.1712 62.8293 73.3763 63.4153 72.7903C64.0014 72.2042 64.7962 71.875 65.625 71.875Z" fill="#0007A5"/>
</g>
<defs>
<clipPath id="clip0">
<rect width="100" height="100" fill="white"/>
</clipPath>
</defs>
</svg>
