<svg width="35" height="32" viewBox="0 0 35 32" fill="none" xmlns="http://www.w3.org/2000/svg">
<g clip-path="url(#clip0)">
<path d="M30.1389 13.6111C30.7158 13.6111 31.2797 13.4401 31.7593 13.1196C32.239 12.7991 32.6128 12.3436 32.8335 11.8106C33.0543 11.2777 33.1121 10.6912 32.9995 10.1254C32.887 9.55965 32.6092 9.03995 32.2013 8.63205C31.7934 8.22415 31.2737 7.94636 30.7079 7.83382C30.1421 7.72128 29.5557 7.77904 29.0227 7.9998C28.4898 8.22055 28.0343 8.59439 27.7138 9.07403C27.3933 9.55368 27.2222 10.1176 27.2222 10.6944C27.2222 11.468 27.5295 12.2099 28.0765 12.7568C28.6235 13.3038 29.3654 13.6111 30.1389 13.6111ZM18.9261 10.8433C19.2518 10.7444 19.5903 10.6943 19.9306 10.6944C20.3248 10.6977 20.7154 10.7695 21.0851 10.9065L22.0178 7.95278C22.0834 7.74655 22.1022 7.52831 22.073 7.31388C22.0438 7.09946 21.9672 6.89423 21.8488 6.71308C21.7304 6.53192 21.5732 6.37939 21.3886 6.26653C21.2039 6.15367 20.9965 6.08333 20.7813 6.06059C20.0807 5.97856 19.4317 6.45191 19.219 7.12457L17.9491 11.1453L18.9261 10.8433ZM5.69055 23.4749C5.73916 23.4634 5.78413 23.4421 5.83335 23.4318V21.8707C5.83494 19.8782 6.46435 17.9369 7.63216 16.3225C8.79998 14.7081 10.4468 13.5028 12.3387 12.8777L16.817 11.4947L18.8927 4.92491C18.958 4.71888 18.9766 4.50093 18.9473 4.28681C18.918 4.0727 18.8414 3.86777 18.7232 3.68686C18.605 3.50595 18.448 3.35358 18.2637 3.24076C18.0794 3.12795 17.8723 3.05751 17.6574 3.03455C16.9568 2.95313 16.3072 3.42648 16.0945 4.09913L14.062 10.5656C14.0231 10.6886 13.9369 10.7911 13.8224 10.8505C13.708 10.9099 13.5746 10.9214 13.4516 10.8825C13.3287 10.8436 13.2262 10.7574 13.1668 10.643C13.1073 10.5285 13.0958 10.3951 13.1347 10.2721L15.7701 1.89948C15.8353 1.69345 15.854 1.4755 15.8246 1.26138C15.7953 1.04726 15.7188 0.842338 15.6006 0.661428C15.4823 0.480518 15.3254 0.328144 15.1411 0.215329C14.9567 0.102514 14.7496 0.0320782 14.5347 0.00911546C13.8341 -0.0723082 13.1858 0.401043 12.9725 1.07309L10.0601 10.2916C10.0212 10.4145 9.93515 10.517 9.82074 10.5765C9.70633 10.636 9.57298 10.6476 9.45001 10.6088C9.32705 10.5699 9.22455 10.4838 9.16507 10.3694C9.10559 10.255 9.09399 10.1217 9.13283 9.9987L11.4759 2.5855C11.5411 2.37948 11.5598 2.16152 11.5305 1.9474C11.5011 1.73329 11.4246 1.52836 11.3064 1.34745C11.1882 1.16654 11.0312 1.01417 10.8469 0.901354C10.6625 0.788539 10.4554 0.718102 10.2406 0.69514C9.53994 0.60764 8.89099 1.08342 8.67831 1.75608L5.03248 13.2921L4.90731 10.2509C4.90851 10.0593 4.87195 9.86938 4.79973 9.69195C4.72751 9.51452 4.62105 9.35305 4.48641 9.21678C4.35177 9.08051 4.1916 8.97209 4.01506 8.89774C3.83851 8.82338 3.64904 8.78453 3.45748 8.78342C2.65357 8.78038 1.9554 9.42387 1.94446 10.2332V17.0832C1.9636 18.3814 2.31873 19.6525 2.97524 20.7727C3.63174 21.8928 4.56723 22.8238 5.69055 23.4749ZM31.5425 20.4167H21.875C21.7461 20.4167 21.6224 20.3655 21.5313 20.2743C21.4401 20.1831 21.3889 20.0595 21.3889 19.9306C21.3889 19.8016 21.4401 19.678 21.5313 19.5868C21.6224 19.4957 21.7461 19.4444 21.875 19.4444H29.6528C29.8689 19.4446 30.0824 19.3967 30.2777 19.3042C30.4731 19.2118 30.6454 19.077 30.7823 18.9098C30.9192 18.7425 31.0172 18.547 31.0693 18.3372C31.1213 18.1274 31.126 17.9087 31.0832 17.6969C30.9501 17.0042 30.3036 16.5278 29.5981 16.5278H17.5L20.3614 15.4911C20.5444 15.4346 20.7146 15.3425 20.862 15.2202C21.0095 15.0979 21.1314 14.9477 21.2209 14.7782C21.3103 14.6088 21.3655 14.4234 21.3833 14.2326C21.401 14.0419 21.3811 13.8495 21.3245 13.6664C21.2679 13.4834 21.1758 13.3132 21.0535 13.1658C20.9312 13.0183 20.781 12.8964 20.6116 12.8069C20.4421 12.7175 20.2567 12.6623 20.066 12.6445C19.8752 12.6268 19.6828 12.6467 19.4998 12.7033L12.9543 14.7237C11.4483 15.2188 10.1371 16.1767 9.20761 17.4608C8.27809 18.745 7.7777 20.2898 7.77779 21.875V23.4336C8.47892 23.5748 9.14012 23.8694 9.71398 24.2963C10.2878 24.7232 10.7601 25.2717 11.097 25.9026C11.4338 26.5336 11.6269 27.2312 11.6624 27.9455C11.6978 28.6599 11.5748 29.3732 11.3021 30.0344C12.4347 30.7335 13.7385 31.1061 15.0695 31.1111H27.7083C27.9245 31.1113 28.1379 31.0634 28.3333 30.9709C28.5286 30.8784 28.701 30.7437 28.8379 30.5765C28.9748 30.4092 29.0728 30.2136 29.1248 30.0039C29.1768 29.7941 29.1816 29.5754 29.1387 29.3635C29.0057 28.6708 28.3591 28.1944 27.6537 28.1944H21.875C21.7461 28.1944 21.6224 28.1432 21.5313 28.0521C21.4401 27.9609 21.3889 27.8373 21.3889 27.7083C21.3889 27.5794 21.4401 27.4558 21.5313 27.3646C21.6224 27.2734 21.7461 27.2222 21.875 27.2222H29.6528C29.8689 27.2224 30.0824 27.1745 30.2777 27.082C30.4731 26.9896 30.6454 26.8548 30.7823 26.6876C30.9192 26.5203 31.0172 26.3247 31.0693 26.115C31.1213 25.9052 31.126 25.6865 31.0832 25.4747C30.9501 24.7819 30.3036 24.3056 29.5981 24.3056H21.875C21.7461 24.3056 21.6224 24.2543 21.5313 24.1632C21.4401 24.072 21.3889 23.9484 21.3889 23.8194C21.3889 23.6905 21.4401 23.5669 21.5313 23.4757C21.6224 23.3845 21.7461 23.3333 21.875 23.3333H31.5972C31.8134 23.3335 32.0268 23.2856 32.2222 23.1931C32.4175 23.1007 32.5899 22.9659 32.7268 22.7987C32.8637 22.6314 32.9617 22.4359 33.0137 22.2261C33.0657 22.0163 33.0705 21.7976 33.0276 21.5858C32.8945 20.8931 32.248 20.4167 31.5425 20.4167ZM25.2778 3.88889C25.6624 3.88889 26.0383 3.77485 26.3581 3.56119C26.6778 3.34753 26.9271 3.04385 27.0742 2.68855C27.2214 2.33325 27.2599 1.94229 27.1849 1.5651C27.1098 1.18792 26.9247 0.841451 26.6527 0.569515C26.3808 0.29758 26.0343 0.11239 25.6571 0.0373628C25.2799 -0.037664 24.889 0.000842491 24.5337 0.148013C24.1784 0.295183 23.8747 0.544408 23.661 0.86417C23.4474 1.18393 23.3333 1.55987 23.3333 1.94445C23.3333 2.46014 23.5382 2.95472 23.9029 3.31938C24.2675 3.68403 24.7621 3.88889 25.2778 3.88889ZM6.80557 25.2778C6.22871 25.2778 5.6648 25.4488 5.18516 25.7693C4.70551 26.0898 4.33168 26.5453 4.11092 27.0783C3.89017 27.6112 3.83241 28.1977 3.94495 28.7635C4.05749 29.3292 4.33527 29.8489 4.74317 30.2568C5.15108 30.6647 5.67078 30.9425 6.23656 31.0551C6.80233 31.1676 7.38878 31.1098 7.92173 30.8891C8.45468 30.6683 8.9102 30.2945 9.23069 29.8149C9.55118 29.3352 9.72224 28.7713 9.72224 28.1944C9.72224 27.4209 9.41495 26.679 8.86796 26.132C8.32098 25.5851 7.57912 25.2778 6.80557 25.2778Z" fill="white"/>
</g>
<defs>
<clipPath id="clip0">
<rect width="35" height="31.1111" fill="white"/>
</clipPath>
</defs>
</svg>
